<svg width="189" height="129" viewBox="0 0 189 129" fill="none" xmlns="http://www.w3.org/2000/svg">
<path d="M94.5001 38.875C87.7039 38.875 81.1861 41.5748 76.3805 46.3804C71.5748 51.186 68.8751 57.7038 68.8751 64.5C68.8751 71.2962 71.5748 77.814 76.3805 82.6196C81.1861 87.4252 87.7039 90.125 94.5001 90.125C101.296 90.125 107.814 87.4252 112.62 82.6196C117.425 77.814 120.125 71.2962 120.125 64.5C120.125 57.7038 117.425 51.186 112.62 46.3804C107.814 41.5748 101.296 38.875 94.5001 38.875ZM94.5001 107.208C83.1731 107.208 72.3101 102.709 64.3007 94.6994C56.2914 86.69 51.7917 75.827 51.7917 64.5C51.7917 53.173 56.2914 42.31 64.3007 34.3006C72.3101 26.2913 83.1731 21.7917 94.5001 21.7917C105.827 21.7917 116.69 26.2913 124.699 34.3006C132.709 42.31 137.208 53.173 137.208 64.5C137.208 75.827 132.709 86.69 124.699 94.6994C116.69 102.709 105.827 107.208 94.5001 107.208ZM94.5001 0.4375C51.7917 0.4375 15.3188 27.0021 0.541748 64.5C15.3188 101.998 51.7917 128.563 94.5001 128.563C137.208 128.563 173.681 101.998 188.458 64.5C173.681 27.0021 137.208 0.4375 94.5001 0.4375Z" fill="white"/>
</svg>
