<svg width="200" height="200" viewBox="0 0 200 200" fill="none" xmlns="http://www.w3.org/2000/svg">
<path d="M195.31 49.3776L150.63 4.68758C149.144 3.20146 147.38 2.02258 145.439 1.21828C143.497 0.413973 141.417 0 139.315 0C137.214 0 135.133 0.413973 133.191 1.21828C131.25 2.02258 129.486 3.20146 128 4.68758L4.69008 128.008C3.19788 129.488 2.01482 131.25 1.20967 133.192C0.404528 135.133 -0.00663439 137.216 8.09495e-05 139.318V184.008C8.09495e-05 188.251 1.68579 192.321 4.68637 195.321C7.68695 198.322 11.7566 200.008 16.0001 200.008H60.6901C62.792 200.014 64.8743 199.603 66.8159 198.798C68.7575 197.993 70.5197 196.81 72.0001 195.318L195.31 72.0076C196.796 70.5218 197.975 68.7578 198.779 66.8164C199.584 64.8749 199.998 62.794 199.998 60.6926C199.998 58.5911 199.584 56.5102 198.779 54.5688C197.975 52.6274 196.796 50.8634 195.31 49.3776ZM19.3101 136.008L109.66 45.6576L126.34 62.3476L36.0001 152.688L19.3101 136.008ZM16.0001 155.318L44.6901 184.008H16.0001V155.318ZM64.0001 180.698L47.3101 164.008L137.66 73.6576L154.34 90.3476L64.0001 180.698Z" fill="white"/>
</svg>
